<?xml version="1.0" encoding="UTF-8" standalone="no"?>
<svg
   xmlns:dc="http://purl.org/dc/elements/1.1/"
   xmlns:cc="http://creativecommons.org/ns#"
   xmlns:rdf="http://www.w3.org/1999/02/22-rdf-syntax-ns#"
   xmlns:svg="http://www.w3.org/2000/svg"
   xmlns="http://www.w3.org/2000/svg"
   xmlns:sodipodi="http://sodipodi.sourceforge.net/DTD/sodipodi-0.dtd"
   xmlns:inkscape="http://www.inkscape.org/namespaces/inkscape"
   inkscape:version="1.0 (4035a4fb49, 2020-05-01)"
   sodipodi:docname="Logo de Felfort.svg"
   viewBox="0 0 512 285.84427"
   height="285.84427"
   width="512"
   id="svg19"
   version="1.1">
  <metadata
     id="metadata25">
    <rdf:RDF>
      <cc:Work
         rdf:about="">
        <dc:format>image/svg+xml</dc:format>
        <dc:type
           rdf:resource="http://purl.org/dc/dcmitype/StillImage" />
        <dc:title></dc:title>
      </cc:Work>
    </rdf:RDF>
  </metadata>
  <defs
     id="defs23" />
  <sodipodi:namedview
     inkscape:current-layer="g31"
     inkscape:window-maximized="1"
     inkscape:window-y="-8"
     inkscape:window-x="-8"
     inkscape:cy="222.64558"
     inkscape:cx="437.56105"
     inkscape:zoom="0.63544061"
     showgrid="false"
     id="namedview21"
     inkscape:window-height="705"
     inkscape:window-width="1366"
     inkscape:pageshadow="2"
     inkscape:pageopacity="0"
     guidetolerance="10"
     gridtolerance="10"
     objecttolerance="10"
     borderopacity="1"
     bordercolor="#666666"
     pagecolor="#ffffff" />
  <g
     transform="translate(-125.13298,7.5110016)"
     id="g27"
     inkscape:label="Image"
     inkscape:groupmode="layer">
    <g
       transform="translate(115.17292,-15.578946)"
       id="g31">
      <g
         transform="matrix(1.0597986,0,0,1.0597986,-0.5955976,-0.48245196)"
         id="g862">
        <path
           style="fill:#cf2d23"
           d="m 271.57664,153.61914 c -14.85948,-20.96229 -16.81205,-41.10171 -5.09939,-52.59682 4.3438,-4.263107 4.84066,-4.474906 11.36215,-4.843403 5.78145,-0.326682 7.57848,-8.52e-4 11.80361,2.140184 2.74115,1.389043 6.6266,4.343809 8.63434,6.566139 2.00775,2.22233 3.88298,3.66436 4.16718,3.20451 0.28421,-0.45986 3.11295,-2.12076 6.2861,-3.6909 4.4158,-2.18502 7.52897,-2.93874 13.26937,-3.21258 7.09478,-0.33846 7.73378,-0.18772 11.82693,2.78997 7.46341,5.42949 9.31011,14.89246 4.79747,24.58347 -5.413,11.62455 -25.3988,22.34197 -54.52812,29.2408 l -8.18199,1.93777 z"
           id="path35"
           sodipodi:nodetypes="ssssssssssscs" />
        <path
           style="fill:#000000;fill-opacity:1"
           d="M 123.61368,276.8614 C 100.8191,273.67231 78.460471,259.75076 71.177273,244.21199 68.832702,239.20982 68.500312,237.25731 68.502513,228.5 c 0.0023,-9.21089 0.259853,-10.54381 3.263665,-16.89148 7.055577,-14.90986 24.166931,-26.4157 48.733822,-32.7691 10.97928,-2.83942 13.44601,-3.11343 29,-3.22141 14.86561,-0.10319 18.12997,0.17706 26,2.23219 17.90664,4.67603 31.95806,13.24686 36.58429,22.31501 2.52992,4.95907 2.50718,13.28914 -0.0526,19.26083 C 209.89272,224.41608 201.56181,234 199.36316,234 198.61342,234 198,234.38738 198,234.86084 c 0,1.37567 -15.52297,8.09055 -23.8651,10.3235 -9.51806,2.54772 -31.64108,3.06516 -40.1349,0.93874 -20.81792,-5.21176 -30.75379,-17.96089 -24.09158,-30.91292 2.67721,-5.20478 6.62558,-8.65149 13.59158,-11.86474 5.02786,-2.31923 7.37719,-2.77395 14.5,-2.80653 10.96815,-0.0502 14.23345,0.82189 13.81492,3.68958 -0.30011,2.05629 -0.83234,2.16057 -11.31492,2.21696 -13.39963,0.0721 -19.68744,2.33154 -24.06418,8.64719 C 106.61727,229.26079 123.26307,242 151.59459,242 c 25.69474,0 48.13753,-9.99449 55.01517,-24.5 4.04697,-8.53539 2.75395,-14.18068 -4.84778,-21.16518 C 191.33581,186.7552 173.33664,181.19783 152,180.97045 c -35.80015,-0.3815 -68.433568,14.53599 -75.992,34.73772 -3.64607,9.74499 -2.14584,24.65017 3.212028,31.91235 6.952949,9.42419 21.201902,17.79714 37.409072,21.98228 9.24292,2.38677 10.98424,2.51785 27.3709,2.06039 13.64187,-0.38083 19.26372,-0.96466 25.5,-2.64816 36.34469,-9.81134 65.3467,-39.99667 92.24932,-96.0132 l 7.44319,-15.49816 2.30989,2.89688 c 2.19854,2.75723 2.57953,2.86518 7.90374,2.23943 3.07662,-0.3616 5.59386,-0.39447 5.59386,-0.073 0,1.26252 -12.7068,25.48336 -18.32667,34.93306 -27.78995,46.72826 -63.61661,73.40035 -106.06821,78.96527 -12.18975,1.59794 -27.24865,1.7592 -36.99144,0.39613 z M 444.62351,244.87064 C 429.04452,242.50326 419,232.84882 419,220.24222 c 0,-7.78895 2.29063,-14.52011 12.42689,-36.51712 C 436.6921,172.2989 441,162.60904 441,162.19207 c 0,-1.58826 -4.73269,-0.45938 -6.81847,1.6264 -2.18734,2.18734 -8.18153,3.08618 -8.18153,1.22684 0,-1.70484 -6.85611,-2.34755 -10.21237,-0.95734 -7.76743,3.21737 -8.68694,4.71169 -24.71318,40.16203 l -3.05151,6.75 h -6.52489 -6.52489 l 1.42947,-3.4212 c 0.78621,-1.88166 4.59102,-10.54416 8.45513,-19.25 8.69173,-19.58244 8.84348,-20.1676 6.12618,-23.62208 C 389.18305,162.41726 388.09357,162 383.91652,162 c -4.84688,0 -12.86227,2.91094 -14.69342,5.3362 -2.00986,2.66195 -4.07765,10.62354 -4.49482,17.30638 -0.54464,8.72485 -3.30412,14.86029 -9.37572,20.846 -16.02071,15.79407 -42.76614,13.29345 -52.07492,-4.86884 -5.63602,-10.99639 -2.74106,-24.33974 7.26476,-33.48449 6.98303,-6.38211 14.83327,-9.34135 24.53949,-9.25048 8.04233,0.0753 12.58453,1.26884 18.14824,4.76875 5.56753,3.50232 12.22799,3.22236 18.67442,-0.78496 3.96905,-2.4673 6.48663,-3.23514 11.8704,-3.62034 7.76784,-0.55579 12.49511,1.22116 17.63057,6.62724 l 2.90552,3.05863 3.52472,-3.09475 c 8.0983,-7.1104 22.63839,-11.22233 26.39596,-7.46476 0.95164,0.95164 2.58457,1.1779 5.30713,0.73536 l 3.93256,-0.63922 8.46161,-18.23536 L 460.39463,121 h 6.27793 c 6.10601,0 6.2537,0.0616 5.39294,2.25 -0.82458,2.09641 -9.02715,19.59567 -13.91581,29.68783 -1.18233,2.44081 -2.14969,4.57831 -2.14969,4.75 0,0.17169 4.95,0.31217 11,0.31217 10.33333,0 11,0.12121 11,2 0,1.88942 -0.66667,2 -12.058,2 h -12.05799 l -4.54668,9.75 c -2.50068,5.3625 -5.80247,12.45 -7.33733,15.75 -1.53486,3.3 -4.89345,10.5 -7.46355,16 -8.50739,18.2058 -7.2336,27.92458 4.46355,34.05618 4.32325,2.26623 4.92016,2.40805 13.13465,3.12057 5.7136,0.49559 7.39866,0.22571 12.13802,-1.94404 3.02685,-1.38574 7.99317,-4.92999 11.03627,-7.87612 C 480.4193,225.90909 486,217.36364 486,214.48592 486,212.54391 489.99629,208 491.70425,208 c 2.96078,0 0.87996,7.32499 -4.02614,14.17298 -6.31757,8.81812 -18.12658,19.30805 -22.78628,20.24103 -0.76551,0.15327 -2.51683,0.73474 -3.89183,1.29214 -3.69405,1.49752 -10.84073,2.0057 -16.37649,1.16449 z M 341,209.93402 c 7.10871,-1.60672 13.64873,-6.58758 16.64744,-12.67865 C 360.79896,190.85393 362.19015,179 359.78992,179 c -3.21343,0 -6.1637,-3.90781 -6.22794,-8.2493 -0.0606,-4.09281 -0.17628,-4.23146 -5.06198,-6.06541 -12.36102,-4.63996 -27.67744,2.5827 -31.92745,15.0558 -5.40237,15.85509 3.1402,30.28508 18.42745,31.12737 0.825,0.0455 3.525,-0.37504 6,-0.93444 z M 26.790644,150.12726 c -2.590145,-1.04671 -5.352782,-2.51605 -6.139192,-3.26519 -0.78641,-0.74914 -2.642002,-2.24062 -4.123538,-3.31439 -6.296442,-4.5635 -8.5243818,-16.55609 -4.657226,-25.069 5.459812,-12.01889 24.876545,-20.651082 29.557869,-13.14069 1.448581,2.324 -0.420339,3.39552 -7.419945,4.25414 -7.372463,0.90435 -9.202454,1.68476 -13.897907,5.92682 -6.977626,6.30387 -8.974099,16.18132 -4.615256,22.83376 0.947585,1.4462 4.701794,4.09596 8.342688,5.88837 5.902255,2.90567 7.543443,3.25892 15.140836,3.25892 7.254315,0 9.338641,-0.40389 14.021027,-2.71695 10.423981,-5.14934 17.733622,-14.34591 28.600946,-35.98404 L 86.020071,100 H 81.010036 C 76.666667,100 76,99.733867 76,98 c 0,-1.776467 0.666667,-2 5.964816,-2 5.172804,0 6.11999,-0.298757 7.133461,-2.25 C 89.741031,92.5125 92.399857,88.575 95.00678,85 102.14586,75.209836 111,56.919929 111,51.96298 c 0,-1.190374 -0.68878,-1.975858 -1.75,-1.995699 -0.9625,-0.01799 -4.9,-0.468848 -8.75,-1.001896 -18.857232,-2.610858 -26.259594,-2.137721 -40.610408,2.595695 -11.103396,3.662301 -16.068979,7.151161 -19.24277,13.520128 -3.174201,6.369793 -3.300731,8.817764 -0.631185,12.211542 5.309178,6.749526 14.441439,5.493132 25.04872,-3.446143 C 70.576038,69.201643 73.000503,68.866561 72.998779,72.75 72.994858,81.577221 54.659298,88.674672 41.806843,84.823983 35.615503,82.969012 29.33841,76.827274 28.205639,71.516065 26.538995,63.701689 29.358961,55.062656 35.345061,49.644273 47.703346,38.458038 71.242052,35.944735 106.5,42.046832 c 22.98782,3.978505 43.34528,4.486878 57,1.423422 9.33948,-2.095326 11.81508,-2.305833 12.5,-1.062915 0.80931,1.468631 -12.69358,5.556494 -23.5,7.114385 -5.5,0.7929 -15.87724,1.44988 -23.06053,1.459956 L 116.37895,51 110.59007,64.588984 c -3.45693,8.114896 -6.47662,17.077925 -7.49613,22.25 L 101.3867,95.5 l 8.30665,0.288933 C 117.18014,96.049348 118,96.271422 118,98.038933 118,99.840314 117.27436,100 109.08858,100 h -8.91142 l -5.579221,11.25 c -6.343341,12.79078 -13.186086,21.72338 -22.769814,29.72399 -9.549626,7.97214 -15.76076,10.23586 -29.328125,10.689 -9.086819,0.30348 -11.819077,0.0364 -15.709356,-1.53573 z m 101.495396,0.42199 c -8.70156,-2.71944 -17.47214,-9.35706 -19.83441,-15.01077 -1.8488,-4.42481 -1.83237,-7.89338 0.0677,-14.29165 2.49627,-8.40585 8.10181,-14.47541 17.70594,-19.1716 18.21186,-8.905159 33.63021,-7.113001 39.65253,4.60903 1.56816,3.0523 1.40031,6.56569 -0.55155,11.5455 -2.14915,5.48313 -4.48709,7.82659 -11.84895,11.87695 -5.14755,2.83208 -7.15726,3.34248 -14.47731,3.67673 -7.82788,0.35744 -8.95467,0.15636 -14.25,-2.54299 l -5.75,-2.93113 v 2.37746 c 0,9.73504 11.67802,18.45159 22.6971,16.94126 19.10646,-2.61883 31.99257,-13.26765 47.59475,-39.33134 C 213.6292,67.640798 218.354,60.571468 227.00724,51.866338 234.08455,44.746588 241.25771,41 247.81177,41 c 5.87725,0 7.63927,1.588224 9.127,8.226779 2.76967,12.358801 -4.59516,35.596447 -17.1335,54.059971 -5.61649,8.27066 -7.45007,10.28259 -13.80527,15.14816 -9.79712,7.50073 -16.98406,9.18542 -23.73943,5.56476 l -3.73218,-2.00033 -1.30226,3.75033 c -4.3761,12.60257 1.80633,21.63852 14.7219,21.51686 8.31083,-0.0783 12.99405,-2.9143 24.75334,-14.98987 5.61075,-5.76166 10.78575,-10.2705 11.5,-10.01965 0.77059,0.27065 1.22926,1.83591 1.12803,3.84955 -0.40136,7.98342 -23.17562,23.63565 -35.92914,24.69327 -12.98469,1.07679 -25.99746,-7.0496 -29.84691,-18.63919 l -1.76967,-5.32799 -2.03465,2.864 c -1.11906,1.57519 -3.54913,3.97535 -5.40015,5.33367 -1.85103,1.35832 -4.73862,3.6588 -6.41688,5.11217 -10.74029,9.30108 -28.3735,13.92966 -39.64596,10.40676 z M 146.17805,127.455 c 9.10211,-3.1014 14.03893,-11.22175 11.82375,-19.44832 -0.78409,-2.91189 -1.94547,-4.45229 -4.28855,-5.68812 -7.91498,-4.174684 -22.26729,-0.10859 -28.44601,8.05893 -3.07201,4.06083 -6.76431,12.45877 -5.87063,13.35245 0.22988,0.22988 3.04718,1.499 6.26067,2.82028 6.83851,2.81174 13.99774,3.1274 20.52077,0.90478 z m 66.49014,-9.6461 C 226.67623,110.81295 250,70.819766 250,53.796189 250,48.209012 248.04341,44 245.44618,44 c -2.60616,0 -9.41267,7.142662 -15.14654,15.894577 -15.41991,23.536244 -31.47168,55.988273 -29.1044,58.840683 1.59325,1.91974 6.58049,1.51705 11.47295,-0.92636 z m 87.47911,-16.82353 -2.22881,-3.014639 3.54075,-6.331465 C 303.40666,88.15696 305,85.013545 305,84.6539 305,84.294255 300.275,84 294.5,84 285.83333,84 284,83.738095 284,82.5 284,81.254494 285.93178,81 295.38603,81 h 11.38604 l 4.02124,-6.75 C 323.17802,53.461174 340.05295,35.586697 357,25.306355 368.79492,18.151371 386.31464,11.600275 400.43366,9.0653343 412.79412,6.846127 428.85252,8.4413052 437.5,12.747359 c 5.16078,2.569834 10.35879,8.959097 12.06579,14.83095 1.43986,4.952964 1.4369,5.900602 -0.0342,10.961185 -3.0545,10.507134 -17.23098,21.144992 -32.64601,24.497172 -8.83777,1.921877 -22.23185,0.886569 -29.04971,-2.245424 -5.95387,-2.735091 -8.88037,-6.146691 -6.93847,-8.088588 1.07891,-1.078914 1.69339,-0.844521 10.60265,4.044346 4.48306,2.460037 19.3534,2.882829 27.4286,0.779849 17.05462,-4.441442 28.38664,-15.040728 28.43635,-26.597655 0.0371,-8.618442 -5.30716,-13.855296 -17.83173,-17.473442 -19.50224,-5.6338838 -51.38569,6.15483 -73.97174,27.350611 -10.64514,9.989879 -21.35991,24.037549 -27.47064,36.015567 L 325.95935,81 h 11.52033 C 347.0533,81 349,81.25347 349,82.5 c 0,1.252467 -2.04068,1.5 -12.36611,1.5 h -12.36612 l -3.12995,7 c -1.72147,3.85 -3.69422,7.000355 -4.38388,7.000789 -0.68967,4.34e-4 -4.10684,1.350434 -7.59373,3.000001 -3.48688,1.64957 -6.43976,2.99921 -6.56194,2.99921 -0.12218,0 -1.22512,-1.35659 -2.45097,-3.01463 z"
           id="path33" />
      </g>
    </g>
  </g>
</svg>
